<svg width="21" height="17" viewBox="0 0 21 17" fill="none" xmlns="http://www.w3.org/2000/svg">
<path d="M18.8334 16.8334H13.625C13.625 16.4861 13.6118 16.1389 13.5855 15.7917C13.5591 15.4445 13.5202 15.0972 13.4688 14.75H18.8334V2.25002H2.16671V3.44794C1.81949 3.39585 1.47226 3.35697 1.12504 3.33127C0.777818 3.30558 0.430596 3.29238 0.083374 3.29169V2.25002C0.083374 1.6771 0.287541 1.18683 0.695874 0.779187C1.10421 0.371548 1.59449 0.167381 2.16671 0.166687H18.8334C19.4063 0.166687 19.8969 0.370854 20.3052 0.779187C20.7136 1.18752 20.9174 1.6778 20.9167 2.25002V14.75C20.9167 15.3229 20.7129 15.8136 20.3052 16.2219C19.8976 16.6302 19.407 16.834 18.8334 16.8334ZM0.083374 16.8334V13.7084C0.95143 13.7084 1.68928 14.0122 2.29692 14.6198C2.90455 15.2275 3.20837 15.9653 3.20837 16.8334H0.083374ZM5.29171 16.8334C5.29171 15.3924 4.78372 14.1643 3.76775 13.149C2.75178 12.1337 1.52365 11.6257 0.083374 11.625V9.54169C2.11462 9.54169 3.83789 10.2493 5.25317 11.6646C6.66844 13.0799 7.37573 14.8028 7.37504 16.8334H5.29171ZM9.45837 16.8334C9.45837 15.5313 9.21115 14.3118 8.71671 13.175C8.22226 12.0382 7.55351 11.0486 6.71046 10.2063C5.8674 9.36391 4.87782 8.69551 3.74171 8.20106C2.6056 7.70662 1.38615 7.45905 0.083374 7.45835V5.37502C1.66324 5.37502 3.14761 5.67467 4.5365 6.27398C5.92539 6.87328 7.14067 7.69342 8.18233 8.7344C9.224 9.77537 10.0445 10.9906 10.6438 12.3802C11.2431 13.7698 11.5424 15.2542 11.5417 16.8334H9.45837Z" fill="black"/>
</svg>
