<svg width="18" height="12" viewBox="0 0 18 12" fill="none" xmlns="http://www.w3.org/2000/svg">
<path d="M2.66699 7.33362C3.21928 7.33362 3.66699 7.78133 3.66699 8.33362V10.3336C3.66682 10.8858 3.21917 11.3336 2.66699 11.3336H1.66699C1.11482 11.3336 0.667168 10.8858 0.666992 10.3336V8.33362C0.666992 7.78133 1.11471 7.33362 1.66699 7.33362H2.66699ZM7.33398 5.33362C7.88612 5.33379 8.33398 5.78144 8.33398 6.33362V10.3336C8.33381 10.8856 7.88601 11.3334 7.33398 11.3336H6.33398C5.78181 11.3336 5.33416 10.8858 5.33398 10.3336V6.33362C5.33398 5.78133 5.7817 5.33362 6.33398 5.33362H7.33398ZM12 2.99963C12.5522 2.99963 12.9998 3.4475 13 3.99963V10.3336C12.9998 10.8858 12.5522 11.3336 12 11.3336H11C10.448 11.3334 10.0002 10.8856 10 10.3336V3.99963C10.0002 3.44761 10.448 2.99981 11 2.99963H12ZM16.667 0.666626C17.2193 0.666626 17.667 1.11434 17.667 1.66663V10.3336C17.6668 10.8858 17.2192 11.3336 16.667 11.3336H15.667C15.1148 11.3336 14.6672 10.8858 14.667 10.3336V1.66663C14.667 1.11434 15.1147 0.666626 15.667 0.666626H16.667Z" fill="black"/>
</svg>
