<svg width="19" height="22" viewBox="0 0 19 22" fill="none" xmlns="http://www.w3.org/2000/svg">
<path d="M7.41667 19.875H11.5833C11.5833 21.0208 10.6458 21.9583 9.5 21.9583C8.35417 21.9583 7.41667 21.0208 7.41667 19.875ZM18.875 17.7916V18.8333H0.125V17.7916L2.20833 15.7083V9.45831C2.20833 6.22915 4.29167 3.41665 7.41667 2.47915V2.16665C7.41667 1.02081 8.35417 0.083313 9.5 0.083313C10.6458 0.083313 11.5833 1.02081 11.5833 2.16665V2.47915C14.7083 3.41665 16.7917 6.22915 16.7917 9.45831V15.7083L18.875 17.7916ZM14.7083 9.45831C14.7083 6.54165 12.4167 4.24998 9.5 4.24998C6.58333 4.24998 4.29167 6.54165 4.29167 9.45831V16.75H14.7083V9.45831Z" fill="black"/>
</svg>
