<svg width="28" height="29" viewBox="0 0 28 29" fill="none" xmlns="http://www.w3.org/2000/svg">
<path d="M5.66699 27.8334C5.66699 23.231 9.39796 19.5 14.0003 19.5C18.6027 19.5 22.3337 23.231 22.3337 27.8334M6.00033 27.8334H22.0003C23.8672 27.8334 24.8007 27.8334 25.5137 27.47C26.1408 27.1505 26.6508 26.6405 26.9703 26.0134C27.3337 25.3004 27.3337 24.3669 27.3337 22.5V6.50002C27.3337 4.63319 27.3337 3.69975 26.9703 2.98672C26.6508 2.3595 26.1408 1.84957 25.5137 1.53C24.8007 1.16669 23.8672 1.16669 22.0003 1.16669H6.00033C4.13349 1.16669 3.20006 1.16669 2.48703 1.53C1.85981 1.84957 1.34988 2.3595 1.03031 2.98672C0.666992 3.69975 0.666992 4.63317 0.666992 6.50002V22.5C0.666992 24.3669 0.666992 25.3004 1.03031 26.0134C1.34988 26.6405 1.85981 27.1505 2.48703 27.47C3.20006 27.8334 4.13348 27.8334 6.00033 27.8334ZM17.3337 11.1667C17.3337 13.0077 15.8413 14.5 14.0003 14.5C12.1593 14.5 10.667 13.0077 10.667 11.1667C10.667 9.32574 12.1593 7.83335 14.0003 7.83335C15.8413 7.83335 17.3337 9.32574 17.3337 11.1667Z" stroke="black" stroke-linecap="round" stroke-linejoin="round"/>
</svg>
