<svg width="21" height="17" viewBox="0 0 21 17" fill="none" xmlns="http://www.w3.org/2000/svg">
<path d="M18.833 16.8334H13.6247C13.6247 16.4861 13.6115 16.1389 13.5851 15.7917C13.5587 15.4445 13.5198 15.0972 13.4684 14.75H18.833V2.25002H2.16634V3.44794C1.81912 3.39585 1.4719 3.35697 1.12467 3.33127C0.777452 3.30558 0.43023 3.29238 0.0830078 3.29169V2.25002C0.0830078 1.6771 0.287175 1.18683 0.695508 0.779187C1.10384 0.371548 1.59412 0.167381 2.16634 0.166687H18.833C19.4059 0.166687 19.8965 0.370854 20.3049 0.779187C20.7132 1.18752 20.917 1.6778 20.9163 2.25002V14.75C20.9163 15.3229 20.7125 15.8136 20.3049 16.2219C19.8972 16.6302 19.4066 16.834 18.833 16.8334ZM0.0830078 16.8334V13.7084C0.951063 13.7084 1.68891 14.0122 2.29655 14.6198C2.90419 15.2275 3.20801 15.9653 3.20801 16.8334H0.0830078ZM5.29134 16.8334C5.29134 15.3924 4.78336 14.1643 3.76738 13.149C2.75141 12.1337 1.52329 11.6257 0.0830078 11.625V9.54169C2.11426 9.54169 3.83752 10.2493 5.2528 11.6646C6.66808 13.0799 7.37537 14.8028 7.37467 16.8334H5.29134ZM9.45801 16.8334C9.45801 15.5313 9.21078 14.3118 8.71634 13.175C8.2219 12.0382 7.55315 11.0486 6.71009 10.2063C5.86704 9.36391 4.87745 8.69551 3.74134 8.20106C2.60523 7.70662 1.38579 7.45905 0.0830078 7.45835V5.37502C1.66287 5.37502 3.14724 5.67467 4.53613 6.27398C5.92502 6.87328 7.1403 7.69342 8.18197 8.7344C9.22363 9.77537 10.0441 10.9906 10.6434 12.3802C11.2427 13.7698 11.542 15.2542 11.5413 16.8334H9.45801Z" fill="black"/>
</svg>
