<svg width="32" height="27" viewBox="0 0 32 27" fill="none" xmlns="http://www.w3.org/2000/svg">
<path d="M24.3333 25.8333C24.3333 23.0718 20.6023 20.8333 16 20.8333C11.3976 20.8333 7.66667 23.0718 7.66667 25.8333M31 20.834C31 18.7837 28.9432 17.0215 26 16.25M1 20.834C1 18.7837 3.05683 17.0215 6 16.25M26 9.56018C27.0228 8.64466 27.6667 7.31418 27.6667 5.83334C27.6667 3.07193 25.4282 0.833344 22.6667 0.833344C21.386 0.833344 20.218 1.31476 19.3333 2.10649M6 9.56018C4.97708 8.64466 4.33333 7.31418 4.33333 5.83334C4.33333 3.07193 6.57192 0.833344 9.33333 0.833344C10.6139 0.833344 11.7821 1.31476 12.6667 2.10649M16 15.8333C13.2385 15.8333 11 13.5948 11 10.8333C11 8.07193 13.2385 5.83334 16 5.83334C18.7615 5.83334 21 8.07193 21 10.8333C21 13.5948 18.7615 15.8333 16 15.8333Z" stroke="black" stroke-linecap="round" stroke-linejoin="round"/>
</svg>
