<svg width="32" height="31" viewBox="0 0 32 31" fill="none" xmlns="http://www.w3.org/2000/svg">
<path d="M11 12.1667C11 11.1778 11.2933 10.2111 11.8427 9.38882C12.3921 8.56657 13.173 7.92572 14.0867 7.54727C15.0002 7.16883 16.0055 7.06982 16.9755 7.26275C17.9453 7.45567 18.8363 7.93187 19.5355 8.63113C20.2348 9.3304 20.711 10.2213 20.904 11.1912C21.0968 12.1611 20.9978 13.1665 20.6193 14.0802C20.241 14.9937 19.6002 15.7747 18.7778 16.324C17.9557 16.8735 16.9888 17.1667 16 17.1667V18.8333M31 15.5C31 23.7843 24.2843 30.5 16 30.5C7.71573 30.5 1 23.7843 1 15.5C1 7.21573 7.71573 0.5 16 0.5C24.2843 0.5 31 7.21573 31 15.5Z" stroke="black" stroke-linecap="round" stroke-linejoin="round"/>
</svg>
