<svg width="18" height="21" viewBox="0 0 18 21" fill="none" xmlns="http://www.w3.org/2000/svg">
<path d="M10.0633 1.2601C10.9153 0.774906 11.9247 0.646585 12.871 0.90316C13.8173 1.15974 14.6237 1.78036 15.1139 2.62948C15.6042 3.4786 15.7385 4.48722 15.4876 5.43505C15.2366 6.38287 14.6208 7.19289 13.7746 7.68819L13.0174 8.12409C13.845 8.09546 14.6584 8.3445 15.3281 8.83159C15.9978 9.31868 16.4853 10.0158 16.713 10.812C16.9407 11.6082 16.8955 12.4576 16.5847 13.2252C16.2738 13.9927 15.715 14.6342 14.9974 15.0474L7.81417 19.1947C6.96202 19.6869 5.94927 19.8203 4.9987 19.5658C4.04814 19.3112 3.23763 18.6895 2.74547 17.8373C2.25332 16.9852 2.11983 15.9725 2.37438 15.0219C2.62894 14.0713 3.25067 13.2608 4.10282 12.7687L4.85901 12.3307C4.03226 12.3577 3.22019 12.1078 2.55171 11.6206C1.88324 11.1334 1.39669 10.4368 1.16933 9.64148C0.941956 8.84616 0.986799 7.99767 1.29673 7.23074C1.60667 6.46382 2.16393 5.82241 2.88003 5.40837L10.0633 1.2601Z" stroke="black" stroke-width="1.5" stroke-linejoin="round"/>
</svg>
