<svg width="34" height="35" viewBox="0 0 34 35" fill="none" xmlns="http://www.w3.org/2000/svg">
<path d="M19.9422 1.08706C19.3295 0.833328 18.553 0.833328 16.9998 0.833328C15.4467 0.833328 14.6702 0.833328 14.0575 1.08706C13.2408 1.42538 12.5919 2.0743 12.2535 2.89105C12.0991 3.2639 12.0387 3.69749 12.015 4.32998C11.9803 5.25946 11.5036 6.11981 10.6981 6.58488C9.89257 7.04993 8.90915 7.03256 8.08682 6.59793C7.52725 6.30216 7.12152 6.13769 6.7214 6.08503C5.8449 5.96963 4.95847 6.20715 4.2571 6.74533C3.73107 7.14896 3.34278 7.82149 2.56622 9.16654C1.78965 10.5116 1.40137 11.1841 1.31482 11.8415C1.19943 12.718 1.43695 13.6044 1.97513 14.3058C2.22077 14.626 2.566 14.895 3.10182 15.2317C3.8895 15.7267 4.39632 16.5698 4.39627 17.5C4.39622 18.4302 3.88942 19.2732 3.1018 19.768C2.56592 20.1048 2.22063 20.374 1.97497 20.6942C1.43678 21.3955 1.19927 22.2818 1.31467 23.1583C1.4012 23.8157 1.78948 24.4883 2.56605 25.8333C3.34263 27.1783 3.73092 27.851 4.25693 28.2545C4.9583 28.7927 5.84473 29.0302 6.72123 28.9148C7.12132 28.8622 7.52703 28.6977 8.08657 28.402C8.90895 27.9673 9.89243 27.95 10.698 28.415C11.5036 28.8802 11.9803 29.7405 12.015 30.6702C12.0387 31.3025 12.0991 31.7362 12.2535 32.109C12.5919 32.9257 13.2408 33.5747 14.0575 33.913C14.6702 34.1667 15.4467 34.1667 16.9998 34.1667C18.553 34.1667 19.3295 34.1667 19.9422 33.913C20.7588 33.5747 21.4078 32.9257 21.746 32.109C21.9005 31.7362 21.961 31.3025 21.9847 30.67C22.0193 29.7405 22.496 28.8802 23.3015 28.415C24.107 27.9498 25.0905 27.9673 25.913 28.402C26.4725 28.6977 26.8782 28.862 27.2782 28.9147C28.1547 29.0302 29.0412 28.7927 29.7425 28.2545C30.2685 27.8508 30.6568 27.1783 31.4333 25.8332C32.21 24.4882 32.5983 23.8157 32.6848 23.1583C32.8002 22.2818 32.5627 21.3953 32.0245 20.694C31.7788 20.3738 31.4335 20.1047 30.8977 19.768C30.1102 19.2732 29.6033 18.43 29.6033 17.4998C29.6033 16.5697 30.1102 15.7268 30.8977 15.232C31.4337 14.8952 31.779 14.6262 32.0247 14.3058C32.5628 13.6045 32.8003 12.7181 32.685 11.8416C32.5985 11.1842 32.2102 10.5117 31.4335 9.16666C30.657 7.82161 30.2687 7.14908 29.7427 6.74544C29.0413 6.20726 28.1548 5.96975 27.2783 6.08515C26.8783 6.13781 26.4727 6.30226 25.913 6.59799C25.0907 7.03264 24.1072 7.05003 23.3017 6.58493C22.496 6.11985 22.0193 5.25943 21.9847 4.32989C21.961 3.69746 21.9005 3.26388 21.746 2.89105C21.4078 2.0743 20.7588 1.42538 19.9422 1.08706Z" stroke="#1C274C"/>
</svg>
