<svg width="26" height="39" viewBox="0 0 26 39" fill="none" xmlns="http://www.w3.org/2000/svg">
<path d="M4.66634 17.8333V9.49999C4.66634 4.49999 7.99967 1.16666 12.9997 1.16666C17.9997 1.16666 21.333 4.49999 21.333 9.49999V17.8333M12.9997 24.5V31.1667M12.9997 37.8333C19.443 37.8333 24.6663 32.61 24.6663 26.1667C24.6663 19.7233 19.443 14.5 12.9997 14.5C6.55635 14.5 1.33301 19.7233 1.33301 26.1667C1.33301 32.61 6.55635 37.8333 12.9997 37.8333ZM12.9997 26.1667C13.9201 26.1667 14.6663 25.4205 14.6663 24.5C14.6663 23.5795 13.9201 22.8333 12.9997 22.8333C12.0792 22.8333 11.333 23.5795 11.333 24.5C11.333 25.4205 12.0792 26.1667 12.9997 26.1667Z" stroke="black"/>
</svg>
