<svg width="16" height="12" viewBox="0 0 16 12" fill="none" xmlns="http://www.w3.org/2000/svg">
<path d="M6.12109 8.7309C7.3966 7.65221 9.26453 7.65221 10.54 8.7309C10.6042 8.78892 10.6418 8.87097 10.6436 8.95746C10.6453 9.04388 10.6114 9.12734 10.5498 9.18793L8.55176 11.2036C8.49322 11.2627 8.41329 11.2963 8.33008 11.2963C8.24704 11.2962 8.1678 11.2626 8.10938 11.2036L6.11133 9.18793C6.04962 9.12728 6.01575 9.04396 6.01758 8.95746C6.01941 8.87095 6.05687 8.78888 6.12109 8.7309ZM3.45508 6.04242C6.20328 3.48604 10.4598 3.48604 13.208 6.04242C13.2699 6.10234 13.3058 6.18479 13.3066 6.27094C13.3074 6.35706 13.2736 6.4403 13.2129 6.5014L12.0576 7.66742C11.9387 7.78649 11.7471 7.78907 11.625 7.67328C10.7225 6.85607 9.54757 6.40367 8.33008 6.40375C7.11362 6.40437 5.9408 6.85679 5.03906 7.67328C4.917 7.78926 4.72446 7.78655 4.60547 7.66742L3.45117 6.5014C3.39031 6.44037 3.35669 6.35711 3.35742 6.27094C3.35823 6.18485 3.39328 6.10233 3.45508 6.04242ZM0.790039 3.36078C5.00514 -0.678769 11.655 -0.678769 15.8701 3.36078C15.9309 3.42067 15.9662 3.502 15.9668 3.58734C15.9673 3.67292 15.9334 3.75611 15.873 3.81683L14.7168 4.98285C14.5977 5.10256 14.4041 5.10461 14.2832 4.98676C12.6773 3.45996 10.546 2.60795 8.33008 2.60785C6.11414 2.60797 3.98299 3.45997 2.37695 4.98676C2.25608 5.10465 2.06233 5.1027 1.94336 4.98285L0.787109 3.81683C0.726845 3.75607 0.693773 3.67292 0.694336 3.58734C0.695002 3.50205 0.729264 3.42063 0.790039 3.36078Z" fill="black"/>
</svg>
